<?xml version="1.0" standalone="no"?>
<!DOCTYPE svg PUBLIC "-//W3C//DTD SVG 20010904//EN"
 "http://www.w3.org/TR/2001/REC-SVG-20010904/DTD/svg10.dtd">
<svg version="1.1" id="Capa_1" xmlns="http://www.w3.org/2000/svg" xmlns:xlink="http://www.w3.org/1999/xlink" x="0px" y="0px"
	 viewBox="0 0 300 300" style="enable-background:new 0 0 300 300;" xml:space="preserve">
<path d="M150.5,0.1C67.7,0.1,0.6,67.2,0.6,150c0,82.8,67.1,149.9,149.9,149.9c77.4,0,141-58.6,149-133.8V134
	C291.5,58.7,227.8,0.1,150.5,0.1z M237,188.1c-51.9,36.6-117.7,37.4-170.6,2.1c-11.3-7.6-25.6-21-33.3-31.2l-4.6-6.1
	c-0.8-1.1-1-2.5-0.5-3.8l1.8-4.9l0.5-1.2c1-2.7,4.5-3.5,6.6-1.5l7.2,6.9c7.1,6.9,15.7,14.1,22.4,18.5c18,12.1,36.4,19.9,56.3,23.9
	c12.5,2.5,43.4,2.5,55.3,0c20.6-4.4,42.8-14.1,59.6-26c4.8-3.4,13.6-10.9,19.6-16.6c2.5-2.4,4.9-4.6,6.8-6.3
	c2.1-1.9,5.5-1.1,6.5,1.6c0,0,0,0,0,0.1c0.9,2.7,2.1,5.4,2.6,5.9C275.3,151.9,250.2,178.8,237,188.1z"/>
</svg>